ply
format ascii 1.0
comment written by Dennis Cheung
element vertex 9
property float32 x
property float32 y
property float32 z
property uchar red
property uchar green
property uchar blue
end_header
-22.89868899150486 12.97937843943731 39.538209222339724 255 0 0
17.002409062933737 -9.416228890483524 30.875292629435652 255 0 0
16.68370482233442 30.39633823844311 -3.7262464821542443 255 0 0
5.629648149619686 -17.65785896324243 17.08458247488816 255 0 0
1.6033418994186026 1.7316991828803172 -13.390855739212988 255 0 0
-2.4182327822664034 -6.761115923020188 -12.844587415373567 255 0 0
-3.6260994207805197 -7.8968404150835205 -13.916260906182213 255 0 0
-3.9318883790047714 -6.1571314334231575 -15.693251683174338 255 0 0
-8.04419436074993 2.7817597644920453 -27.92688210056617 255 0 0
